<?xml version="1.0" standalone="no"?>
<!DOCTYPE svg PUBLIC "-//W3C//DTD SVG 20010904//EN"
 "http://www.w3.org/TR/2001/REC-SVG-20010904/DTD/svg10.dtd">
<svg version="1.0" xmlns="http://www.w3.org/2000/svg"
 width="288.000000pt" height="288.000000pt" viewBox="0 0 288.000000 288.000000"
 preserveAspectRatio="xMidYMid meet">

<g transform="translate(0.000000,288.000000) scale(0.100000,-0.100000)"
fill="#B97A95" stroke="none">
<path d="M1498 2210 c-28 -49 -71 -56 -90 -15 -9 21 -18 25 -55 25 -39 0 -43
-2 -43 -25 0 -36 -54 -61 -87 -39 -21 13 -27 12 -78 -22 -53 -35 -55 -39 -55
-81 0 -47 -18 -65 -45 -43 -12 10 -21 8 -47 -7 -29 -16 -33 -25 -36 -65 -2
-36 -10 -52 -37 -78 -30 -29 -35 -40 -35 -82 0 -37 5 -51 20 -60 27 -17 25
-35 -5 -42 -22 -6 -25 -11 -25 -56 0 -42 3 -50 18 -50 10 0 27 -7 38 -15 19
-14 18 -15 -8 -37 -31 -26 -48 -65 -48 -111 0 -24 3 -28 12 -19 39 39 100 -17
63 -58 -24 -26 -50 -25 -69 2 -15 21 -16 -12 -16 -374 0 -349 2 -397 16 -409
11 -9 20 -10 32 -2 15 9 17 42 20 292 l2 281 43 -52 c141 -174 441 -246 780
-188 228 39 360 116 418 244 19 42 24 115 10 150 -6 15 0 26 23 47 28 24 31
34 31 82 0 62 -26 110 -64 115 -23 4 -27 22 -11 53 8 14 6 27 -6 51 -13 24
-14 36 -5 50 15 25 14 53 -4 68 -8 7 -15 18 -15 25 0 7 7 15 15 19 11 4 15 20
15 55 0 45 -3 52 -37 80 -22 18 -49 31 -66 31 -27 0 -28 1 -21 38 3 20 7 40 8
45 0 4 -17 17 -39 30 -27 15 -41 31 -45 50 -3 17 -17 35 -38 47 l-33 20 -33
-25 c-45 -35 -76 -34 -76 3 0 22 -9 33 -54 60 -64 38 -67 38 -91 12 l-18 -20
-22 20 c-12 11 -35 20 -53 20 -26 0 -35 -7 -54 -40z m62 -300 c0 -18 7 -20 60
-20 43 0 61 4 68 16 13 24 62 8 62 -21 0 -15 8 -25 23 -29 35 -9 77 -7 77 4 0
6 11 10 25 10 22 0 24 -3 19 -30 -6 -25 -3 -30 21 -36 21 -5 26 -11 21 -28 -4
-14 4 -30 26 -53 23 -24 28 -36 21 -45 -17 -21 -4 -76 21 -84 32 -10 54 -33
61 -66 4 -16 13 -32 21 -35 9 -3 14 -21 14 -50 0 -36 7 -55 34 -92 83 -114 70
-219 -42 -323 -61 -57 -107 -81 -214 -111 -331 -95 -701 -39 -860 131 -62 66
-78 100 -78 167 0 48 2 55 20 55 11 0 20 -6 20 -14 0 -8 10 -22 22 -30 19 -14
63 -16 277 -16 223 0 257 2 273 17 16 14 18 33 18 149 0 126 -1 134 -22 148
-12 9 -35 16 -50 16 -18 0 -48 17 -90 53 -101 84 -106 86 -45 15 l59 -68 -171
0 -171 0 0 28 c0 15 -5 33 -11 39 -17 17 -7 57 16 62 36 6 49 57 20 81 -14 12
-14 15 1 31 10 11 30 19 46 19 23 0 31 6 39 29 12 34 39 48 54 28 7 -9 22 -13
44 -9 26 3 36 11 45 33 8 22 17 29 38 29 21 0 28 -5 28 -20 0 -17 7 -20 46
-20 41 0 46 3 55 30 13 36 59 44 59 10z m-12 -393 c20 -13 17 -261 -4 -281
-23 -24 -498 -24 -532 0 -21 14 -22 22 -22 139 0 110 2 125 19 137 14 10 79
13 272 13 140 0 260 -4 267 -8z m-568 -49 c0 -18 -5 -28 -15 -28 -7 0 -18 -6
-22 -13 -4 -8 -19 -16 -31 -20 -23 -5 -24 -4 -17 31 4 20 16 47 27 59 17 18
24 20 39 10 11 -7 19 -23 19 -39z m1234 9 c31 -42 29 -109 -5 -143 l-27 -26
-30 45 c-39 55 -46 119 -16 142 27 21 54 15 78 -18z"/>
<path d="M1778 1607 c-42 -34 -76 -69 -75 -77 4 -29 26 -14 92 63 37 42 65 77
63 77 -2 0 -38 -29 -80 -63z"/>
<path d="M1787 1453 c-14 -16 -33 -45 -41 -65 -17 -39 -21 -71 -8 -53 4 6 22
23 40 38 58 47 142 30 164 -34 3 -8 9 -11 13 -7 9 9 -20 57 -49 80 -31 26 -83
22 -123 -8 l-35 -26 16 30 c9 17 28 40 42 51 15 12 22 21 17 21 -5 0 -21 -12
-36 -27z"/>
<path d="M1901 1468 c2 -2 27 -23 54 -48 l50 -45 -45 48 c-24 26 -48 47 -54
47 -5 0 -7 -1 -5 -2z"/>
<path d="M1573 1113 c133 -3 157 -6 157 -19 0 -13 -22 -15 -155 -12 -85 2
-155 1 -155 0 0 -18 48 -63 80 -76 85 -34 184 -13 220 46 41 68 39 68 -142 66
l-163 -2 158 -3z"/>
<path d="M1274 1506 c-93 -41 -116 -146 -47 -218 76 -79 212 -45 244 62 17 56
-16 121 -75 149 -49 24 -78 26 -122 7z m103 -7 c95 -36 117 -155 40 -212 -63
-47 -127 -44 -183 8 -30 28 -34 39 -34 81 0 94 90 156 177 123z"/>
<path d="M1284 1481 c-66 -29 -85 -121 -35 -171 51 -51 106 -52 162 -2 67 60
25 168 -67 178 -21 2 -49 0 -60 -5z m94 -23 c21 -21 13 -27 -17 -12 -61 30
-121 -24 -106 -98 6 -31 5 -32 -10 -14 -8 11 -15 28 -15 38 0 26 27 75 47 87
25 14 86 14 101 -1z m-28 -78 c0 -13 -7 -20 -20 -20 -13 0 -20 7 -20 20 0 13
7 20 20 20 13 0 20 -7 20 -20z"/>
<path d="M1032 1498 c-14 -14 -17 -215 -3 -236 5 -8 17 -12 27 -10 17 3 19 14
19 128 0 104 -3 125 -15 128 -9 1 -21 -3 -28 -10z m38 -43 c0 -8 -9 -15 -20
-15 -20 0 -26 11 -13 23 12 13 33 7 33 -8z m0 -45 c0 -13 -7 -20 -20 -20 -19
0 -27 20 -13 33 13 14 33 6 33 -13z"/>
<path d="M1011 801 c-49 -49 -52 -165 -5 -221 50 -58 112 -28 135 65 5 23 7
15 8 -33 l1 -63 38 3 c34 3 37 6 42 37 l5 34 17 -36 c14 -28 24 -37 43 -37
l25 0 0 135 0 135 -34 0 c-34 0 -35 -1 -38 -42 l-4 -43 -19 43 c-15 35 -23 42
-47 42 -28 0 -28 -1 -29 -62 -1 -54 -2 -58 -9 -29 -19 78 -85 116 -129 72z
m63 -96 c7 -18 -2 -45 -15 -45 -5 0 -12 7 -15 15 -7 18 2 45 15 45 5 0 11 -7
15 -15z"/>
<path d="M1366 795 c-38 -41 -47 -120 -21 -182 23 -55 39 -62 141 -63 89 0 91
0 103 27 l13 28 14 -28 c12 -22 21 -27 54 -27 l40 0 -34 68 -34 67 29 59 c16
32 29 62 29 67 0 5 -17 9 -39 9 -30 0 -40 -4 -44 -20 -3 -11 -10 -20 -15 -20
-6 0 -14 9 -17 20 -5 16 -15 20 -46 20 -21 0 -39 -2 -39 -5 0 -3 14 -33 31
-67 l31 -62 -28 -55 -29 -56 -3 58 -3 57 -34 0 c-29 0 -35 -4 -35 -21 0 -12
-5 -19 -12 -16 -7 2 -13 17 -13 33 0 26 3 29 33 27 29 -1 35 4 50 34 16 34 16
35 -7 54 -34 28 -87 25 -115 -6z"/>
<path d="M1742 797 c-49 -52 -51 -162 -5 -217 30 -36 67 -39 100 -8 l23 21 0
-21 c0 -18 6 -22 34 -22 28 0 35 4 40 25 5 20 13 25 35 25 23 0 30 -5 33 -22
3 -21 9 -23 76 -26 l72 -3 0 38 1 38 20 -37 c14 -28 26 -38 44 -38 l25 0 0
135 0 135 -35 0 c-34 0 -35 -1 -36 -42 l0 -43 -22 43 c-15 31 -27 42 -44 42
-23 0 -23 -2 -23 -107 0 -58 -3 -103 -7 -99 -5 4 -17 51 -28 104 l-21 97 -54
0 -55 0 -16 -70 -16 -69 -12 49 c-22 89 -82 122 -129 72z m63 -107 c0 -13 -6
-25 -12 -27 -16 -6 -27 21 -19 43 9 23 31 11 31 -16z m175 -11 c0 -10 -4 -19
-10 -19 -5 0 -10 12 -10 26 0 14 4 23 10 19 6 -3 10 -15 10 -26z"/>
</g>
</svg>
